<?xml version="1.0" standalone="no"?>
<!DOCTYPE svg PUBLIC "-//W3C//DTD SVG 20010904//EN"
 "http://www.w3.org/TR/2001/REC-SVG-20010904/DTD/svg10.dtd">
<svg version="1.0" xmlns="http://www.w3.org/2000/svg"
 width="500.000000pt" height="500.000000pt" viewBox="0 0 500.000000 500.000000"
 preserveAspectRatio="xMidYMid meet">
<metadata>
Created by potrace 1.11, written by Peter Selinger 2001-2013
</metadata>
<g transform="translate(0.000000,500.000000) scale(0.100000,-0.100000)"
fill="#000000" stroke="none">
<path d="M4727 4194 c-1 -1 -34 -5 -72 -9 -140 -13 -375 -69 -480 -114 -22
-10 -60 -26 -85 -36 -195 -82 -418 -234 -570 -387 -59 -60 -70 -67 -70 -44 0
8 -15 26 -32 41 l-33 28 -148 -7 c-81 -4 -158 -9 -170 -11 -12 -2 -78 -6 -147
-10 -69 -3 -141 -8 -160 -10 -19 -1 -84 -6 -145 -9 -60 -4 -168 -11 -240 -16
-71 -5 -175 -12 -230 -15 -55 -3 -125 -7 -155 -10 -30 -3 -98 -7 -150 -10 -52
-3 -120 -8 -150 -10 -30 -2 -100 -7 -155 -10 -55 -3 -118 -7 -140 -10 -22 -2
-94 -7 -160 -10 -66 -3 -138 -8 -160 -10 -22 -2 -94 -7 -160 -11 -66 -3 -129
-8 -140 -10 -11 -2 -46 -5 -77 -5 -32 -1 -62 -7 -67 -13 -15 -17 -225 -815
-404 -1531 -165 -658 -232 -968 -224 -1038 14 -126 166 -157 393 -81 128 42
389 150 490 203 52 26 94 45 94 42 1 -23 189 -211 275 -275 309 -230 652 -312
1055 -252 99 15 282 79 390 137 368 199 621 554 694 974 19 109 14 365 -8 470
-26 122 -73 255 -127 362 -27 53 -47 98 -45 100 16 16 238 23 310 9 188 -35
285 -74 424 -168 81 -54 80 -54 146 4 14 13 73 61 131 108 l106 85 -33 28
c-137 114 -328 204 -503 235 -53 9 -320 8 -365 -2 l-35 -7 35 37 c30 31 127
125 164 159 30 27 148 116 201 150 149 98 448 224 590 250 219 40 241 43 352
44 l72 1 10 38 c5 20 14 60 20 87 12 56 47 220 85 399 14 66 26 125 26 131 0
8 -34 11 -111 11 -60 0 -111 -1 -112 -2z m-1697 -1344 c0 -5 -4 -10 -10 -10
-5 0 -10 5 -10 10 0 6 5 10 10 10 6 0 10 -4 10 -10z"/>
</g>
</svg>
